<svg width="64" height="64" viewBox="0 0 64 64" fill="none" xmlns="http://www.w3.org/2000/svg">
<path d="M16.5515 9.65676L7.30012 23.6001C7.29729 23.6044 7.294 23.6093 7.29032 23.6148C7.25411 23.6688 7.1795 23.78 7.12436 23.9068C7.07759 24.0144 7.04361 24.1271 7.0231 24.2426C6.99892 24.3788 6.9996 24.5127 6.99994 24.5777C6.99997 24.5843 7 24.5902 7 24.5953V26.2L6.99999 26.2231C6.99995 26.3423 6.99989 26.4845 7.01013 26.6098C7.022 26.755 7.05244 26.963 7.16349 27.181C7.3073 27.4632 7.53677 27.6927 7.81901 27.8365C8.03696 27.9476 8.24495 27.978 8.39017 27.9899C8.5155 28.0001 8.65777 28.0001 8.7769 28L8.8 28H23.2L23.2231 28C23.3422 28.0001 23.4845 28.0001 23.6098 27.9899C23.755 27.978 23.963 27.9476 24.181 27.8365C24.4632 27.6927 24.6927 27.4632 24.8365 27.181C24.9476 26.963 24.978 26.755 24.9899 26.6098C25.0001 26.4845 25.0001 26.3423 25 26.2231L25 26.2V24.1135C25 24.1059 25 24.0982 25 24.0904C25.0001 23.9713 25.0001 23.829 24.9899 23.7037C24.978 23.5585 24.9476 23.3505 24.8365 23.1325C24.6927 22.8503 24.4632 22.6208 24.181 22.477C23.963 22.366 23.755 22.3355 23.6098 22.3236C23.4845 22.3134 23.3423 22.3135 23.2232 22.3135C23.2153 22.3135 23.2076 22.3135 23.2 22.3135H15.3549L24.5805 8.3687C24.5833 8.36444 24.5865 8.35955 24.5902 8.35406C24.6263 8.30016 24.7005 8.18912 24.7554 8.06251C24.802 7.95514 24.8358 7.84269 24.8562 7.72746C24.8803 7.59156 24.8796 7.45795 24.8793 7.39311C24.8793 7.38652 24.8792 7.38064 24.8792 7.37554V5.8C24.8792 5.79241 24.8792 5.7847 24.8793 5.7769C24.8793 5.65777 24.8794 5.5155 24.8691 5.39017C24.8572 5.24495 24.8268 5.03696 24.7158 4.81901C24.5719 4.53677 24.3425 4.3073 24.0602 4.16349C23.8423 4.05244 23.6343 4.022 23.4891 4.01013C23.3638 3.99989 23.2215 3.99995 23.1024 3.99999C23.0946 4 23.0869 4 23.0792 4H9.79623C9.78862 4 9.7809 4 9.77309 3.99999C9.65397 3.99995 9.51171 3.99989 9.3864 4.01013C9.24118 4.022 9.03319 4.05244 8.81524 4.16349C8.533 4.3073 8.30353 4.53677 8.15972 4.81901C8.04867 5.03696 8.01822 5.24495 8.00636 5.39017C7.99612 5.51549 7.99618 5.65775 7.99622 5.77686C7.99622 5.78468 7.99623 5.79239 7.99623 5.8V7.85676C7.99623 7.86436 7.99622 7.87208 7.99622 7.87989C7.99618 7.99901 7.99612 8.14127 8.00636 8.26659C8.01822 8.4118 8.04867 8.6198 8.15972 8.83774C8.30353 9.11998 8.533 9.34945 8.81524 9.49327C9.03319 9.60431 9.24118 9.63476 9.3864 9.64662C9.51172 9.65686 9.65397 9.65681 9.77309 9.65676C9.7809 9.65676 9.78862 9.65676 9.79623 9.65676H16.5515Z" stroke="#94A4BD" stroke-opacity="0.2" stroke-width="2"/>
<path d="M55.1 4H40.5C39.6716 4 39 4.67157 39 5.5V26.5C39 27.3284 39.6716 28 40.5 28H55.5C56.3284 28 57 27.3284 57 26.5V23.8135C57 22.9851 56.3284 22.3135 55.5 22.3135H45.34V18.427H53.5C54.3284 18.427 55 17.7555 55 16.927V14.5C55 13.6716 54.3284 13 53.5 13H45.34V9.5H55.1C55.9284 9.5 56.6 8.82843 56.6 8V5.5C56.6 4.67157 55.9284 4 55.1 4Z" stroke="#94A4BD" stroke-opacity="0.2" stroke-width="2"/>
<path d="M23.1 36H8.5C7.67157 36 7 36.6716 7 37.5V58.5C7 59.3284 7.67157 60 8.5 60H23.5C24.3284 60 25 59.3284 25 58.5V55.8135C25 54.9851 24.3284 54.3135 23.5 54.3135H13.34V50.427H21.5C22.3284 50.427 23 49.7555 23 48.927V46.5C23 45.6716 22.3284 45 21.5 45H13.34V41.5H23.1C23.9284 41.5 24.6 40.8284 24.6 40V37.5C24.6 36.6716 23.9284 36 23.1 36Z" stroke="#94A4BD" stroke-opacity="0.2" stroke-width="2"/>
<path d="M48.5515 41.6568L39.3001 55.6001C39.2973 55.6044 39.294 55.6093 39.2903 55.6148C39.2541 55.6688 39.1795 55.78 39.1244 55.9068C39.0776 56.0144 39.0436 56.1271 39.0231 56.2426C38.9989 56.3788 38.9996 56.5127 38.9999 56.5777C39 56.5843 39 56.5902 39 56.5953V58.2L39 58.2231C38.9999 58.3423 38.9999 58.4845 39.0101 58.6098C39.022 58.755 39.0524 58.963 39.1635 59.181C39.3073 59.4632 39.5368 59.6927 39.819 59.8365C40.037 59.9476 40.245 59.978 40.3902 59.9899C40.5155 60.0001 40.6578 60.0001 40.7769 60L40.8 60H55.2L55.2231 60C55.3422 60.0001 55.4845 60.0001 55.6098 59.9899C55.755 59.978 55.963 59.9476 56.181 59.8365C56.4632 59.6927 56.6927 59.4632 56.8365 59.181C56.9476 58.963 56.978 58.755 56.9899 58.6098C57.0001 58.4845 57.0001 58.3423 57 58.2231L57 58.2V56.1135C57 56.1059 57 56.0982 57 56.0904C57.0001 55.9713 57.0001 55.829 56.9899 55.7037C56.978 55.5585 56.9476 55.3505 56.8365 55.1325C56.6927 54.8503 56.4632 54.6208 56.181 54.477C55.963 54.366 55.755 54.3355 55.6098 54.3236C55.4845 54.3134 55.3423 54.3135 55.2232 54.3135C55.2153 54.3135 55.2076 54.3135 55.2 54.3135H47.3549L56.5805 40.3687C56.5833 40.3644 56.5865 40.3595 56.5902 40.3541C56.6263 40.3002 56.7005 40.1891 56.7554 40.0625C56.802 39.9551 56.8358 39.8427 56.8562 39.7275C56.8803 39.5916 56.8796 39.458 56.8793 39.3931C56.8793 39.3865 56.8792 39.3806 56.8792 39.3755V37.8C56.8792 37.7924 56.8792 37.7847 56.8793 37.7769C56.8793 37.6578 56.8794 37.5155 56.8691 37.3902C56.8572 37.245 56.8268 37.037 56.7158 36.819C56.5719 36.5368 56.3425 36.3073 56.0602 36.1635C55.8423 36.0524 55.6343 36.022 55.4891 36.0101C55.3638 35.9999 55.2215 35.9999 55.1024 36C55.0946 36 55.0869 36 55.0792 36H41.7962C41.7886 36 41.7809 36 41.7731 36C41.654 35.9999 41.5117 35.9999 41.3864 36.0101C41.2412 36.022 41.0332 36.0524 40.8152 36.1635C40.533 36.3073 40.3035 36.5368 40.1597 36.819C40.0487 37.037 40.0182 37.245 40.0064 37.3902C39.9961 37.5155 39.9962 37.6577 39.9962 37.7769C39.9962 37.7847 39.9962 37.7924 39.9962 37.8V39.8568C39.9962 39.8644 39.9962 39.8721 39.9962 39.8799C39.9962 39.999 39.9961 40.1413 40.0064 40.2666C40.0182 40.4118 40.0487 40.6198 40.1597 40.8377C40.3035 41.12 40.533 41.3495 40.8152 41.4933C41.0332 41.6043 41.2412 41.6348 41.3864 41.6466C41.5117 41.6569 41.654 41.6568 41.7731 41.6568C41.7809 41.6568 41.7886 41.6568 41.7962 41.6568H48.5515Z" stroke="#94A4BD" stroke-opacity="0.2" stroke-width="2"/>
</svg>
