<svg id="svg" version="1.1" width="65" height="65" viewBox="0 0 400 400" xmlns="http://www.w3.org/2000/svg" xmlns:xlink="http://www.w3.org/1999/xlink" style="display: block;">
  <defs>
    <linearGradient x1="100%" y1="100%" x2="0%" y2="0%" id="linearGradient-1">
      <stop stop-color="#0089FF" offset="0%"></stop>
      <stop stop-color="#02DEF2" offset="100%"></stop>
    </linearGradient>
  </defs>
  <g id="svgg">
    <path id="path0" d="M75.750 90.875 L 75.750 121.249 157.994 121.312 L 240.239 121.375 162.586 186.119 C 117.232 223.933,84.352 251.520,83.537 252.443 C 79.680 256.809,77.094 262.107,76.134 267.611 C 75.562 270.892,75.564 304.870,76.137 308.154 C 78.277 320.426,87.433 329.924,99.889 332.792 L 102.375 333.365 210.313 333.435 L 318.250 333.506 318.250 303.128 L 318.250 272.751 235.943 272.688 L 153.636 272.625 230.380 208.664 C 272.590 173.486,308.144 143.673,309.389 142.414 C 313.590 138.168,315.998 133.829,317.527 127.750 L 318.125 125.375 318.123 105.875 L 318.121 86.375 317.329 83.443 C 314.031 71.231,303.879 62.279,291.625 60.777 C 290.017 60.580,258.885 60.501,182.563 60.501 L 75.750 60.500 75.750 90.875 " stroke="none" fill="url(#linearGradient-1)" fill-rule="evenodd"></path>
    <path id="path1" d="M75.750 90.875 L 75.750 121.249 157.994 121.312 L 240.239 121.375 162.586 186.119 C 117.232 223.933,84.352 251.520,83.537 252.443 C 79.680 256.809,77.094 262.107,76.134 267.611 C 75.562 270.892,75.564 304.870,76.137 308.154 C 78.277 320.426,87.433 329.924,99.889 332.792 L 102.375 333.365 210.313 333.435 L 318.250 333.506 318.250 303.128 L 318.250 272.751 235.943 272.688 L 153.636 272.625 230.380 208.664 C 272.590 173.486,308.144 143.673,309.389 142.414 C 313.590 138.168,315.998 133.829,317.527 127.750 L 318.125 125.375 318.123 105.875 L 318.121 86.375 317.329 83.443 C 314.031 71.231,303.879 62.279,291.625 60.777 C 290.017 60.580,258.885 60.501,182.563 60.501 L 75.750 60.500 75.750 90.875 " stroke="none" fill="url(#linearGradient-1)" fill-rule="evenodd"></path>
    <path id="path2" d="M75.750 90.875 L 75.750 121.249 157.994 121.312 L 240.239 121.375 162.586 186.119 C 117.232 223.933,84.352 251.520,83.537 252.443 C 79.680 256.809,77.094 262.107,76.134 267.611 C 75.562 270.892,75.564 304.870,76.137 308.154 C 78.277 320.426,87.433 329.924,99.889 332.792 L 102.375 333.365 210.313 333.435 L 318.250 333.506 318.250 303.128 L 318.250 272.751 235.943 272.688 L 153.636 272.625 230.380 208.664 C 272.590 173.486,308.144 143.673,309.389 142.414 C 313.590 138.168,315.998 133.829,317.527 127.750 L 318.125 125.375 318.123 105.875 L 318.121 86.375 317.329 83.443 C 314.031 71.231,303.879 62.279,291.625 60.777 C 290.017 60.580,258.885 60.501,182.563 60.501 L 75.750 60.500 75.750 90.875 " stroke="none" fill="url(#linearGradient-1)" fill-rule="evenodd"></path>
    <path id="path3" d="M75.750 90.875 L 75.750 121.249 157.994 121.312 L 240.239 121.375 162.586 186.119 C 117.232 223.933,84.352 251.520,83.537 252.443 C 79.680 256.809,77.094 262.107,76.134 267.611 C 75.562 270.892,75.564 304.870,76.137 308.154 C 78.277 320.426,87.433 329.924,99.889 332.792 L 102.375 333.365 210.313 333.435 L 318.250 333.506 318.250 303.128 L 318.250 272.751 235.943 272.688 L 153.636 272.625 230.380 208.664 C 272.590 173.486,308.144 143.673,309.389 142.414 C 313.590 138.168,315.998 133.829,317.527 127.750 L 318.125 125.375 318.123 105.875 L 318.121 86.375 317.329 83.443 C 314.031 71.231,303.879 62.279,291.625 60.777 C 290.017 60.580,258.885 60.501,182.563 60.501 L 75.750 60.500 75.750 90.875 " stroke="none" fill="url(#linearGradient-1)" fill-rule="evenodd"></path>
    <path id="path4" d="M75.750 90.875 L 75.750 121.249 157.994 121.312 L 240.239 121.375 162.586 186.119 C 117.232 223.933,84.352 251.520,83.537 252.443 C 79.680 256.809,77.094 262.107,76.134 267.611 C 75.562 270.892,75.564 304.870,76.137 308.154 C 78.277 320.426,87.433 329.924,99.889 332.792 L 102.375 333.365 210.313 333.435 L 318.250 333.506 318.250 303.128 L 318.250 272.751 235.943 272.688 L 153.636 272.625 230.380 208.664 C 272.590 173.486,308.144 143.673,309.389 142.414 C 313.590 138.168,315.998 133.829,317.527 127.750 L 318.125 125.375 318.123 105.875 L 318.121 86.375 317.329 83.443 C 314.031 71.231,303.879 62.279,291.625 60.777 C 290.017 60.580,258.885 60.501,182.563 60.501 L 75.750 60.500 75.750 90.875 " stroke="none" fill="url(#linearGradient-1)" fill-rule="evenodd"></path>
  </g>
</svg>